<svg width="100" height="29" viewBox="0 0 100 29" fill="none" xmlns="http://www.w3.org/2000/svg">
<g id="Group 71">
<g id="Group">
<path id="Vector" d="M31.781 20.3375V8.05518H38.0103C38.9818 8.05518 39.7908 8.1749 40.4407 8.41436C41.0907 8.65381 41.5833 9.00273 41.9236 9.4577C42.2623 9.91437 42.4316 10.4703 42.4316 11.1253C42.4316 11.7804 42.2298 12.3602 41.8261 12.8272C41.4225 13.2958 40.8341 13.6293 40.0627 13.8277L40.1328 13.4771C40.6596 13.5951 41.1471 13.7901 41.5987 14.0655C42.0485 14.3409 42.4094 14.6949 42.6779 15.1276C42.9464 15.5604 43.0816 16.082 43.0816 16.6892C43.0816 17.3683 42.9499 17.9412 42.6865 18.4082C42.4231 18.8768 42.0656 19.2497 41.6158 19.5302C41.1659 19.8107 40.6614 20.0159 40.1072 20.1442C39.5513 20.2725 38.9749 20.3375 38.3797 20.3375H31.7827H31.781ZM34.0096 13.0204H38.0975C38.484 13.0204 38.8278 12.9589 39.1323 12.8357C39.4367 12.7126 39.6796 12.5398 39.8609 12.3175C40.0422 12.0951 40.1328 11.8386 40.1328 11.5461C40.1328 11.0552 39.9276 10.6926 39.5188 10.4583C39.11 10.224 38.5764 10.1076 37.923 10.1076H34.0096V13.0204ZM34.0096 18.285H38.378C38.8569 18.285 39.2794 18.2235 39.642 18.1003C40.0046 17.9772 40.2851 17.7907 40.4835 17.5393C40.6819 17.2879 40.7811 16.98 40.7811 16.6174C40.7811 16.2206 40.6614 15.9042 40.4219 15.6698C40.1825 15.4355 39.8694 15.2662 39.4829 15.1619C39.0964 15.0558 38.6995 15.0045 38.289 15.0045H34.0079V18.285H34.0096Z" fill="white"/>
<path id="Vector_2" d="M52.6426 20.5119C51.625 20.5119 50.6894 20.3511 49.8359 20.0296C48.9824 19.708 48.2367 19.2599 47.5987 18.6869C46.9607 18.1139 46.4698 17.4434 46.1243 16.6772C45.7788 15.9109 45.6061 15.078 45.6061 14.1766C45.6061 13.2752 45.7788 12.4423 46.1243 11.676C46.4698 10.9098 46.9607 10.241 47.5987 9.6663C48.2367 9.09332 48.9824 8.64519 49.8359 8.32364C50.6894 8.00209 51.625 7.84131 52.6426 7.84131C53.6603 7.84131 54.613 7.99866 55.4682 8.31509C56.3217 8.63151 57.064 9.07792 57.6968 9.65775C58.328 10.2376 58.8189 10.9098 59.1712 11.676C59.5218 12.4423 59.698 13.2752 59.698 14.1766C59.698 15.078 59.5218 15.9109 59.1712 16.6772C58.8206 17.4434 58.3297 18.1156 57.6968 18.6955C57.0657 19.2753 56.3217 19.7217 55.4682 20.0381C54.6147 20.3545 53.6723 20.5119 52.6426 20.5119ZM52.6426 18.3363C53.3439 18.3363 53.9785 18.2302 54.5463 18.0199C55.1142 17.8095 55.6102 17.5136 56.0378 17.1339C56.4654 16.7542 56.7955 16.3129 57.0298 15.81C57.2641 15.3072 57.3804 14.7633 57.3804 14.1783C57.3804 13.5934 57.2641 13.0495 57.0298 12.5466C56.7955 12.0437 56.4654 11.6025 56.0378 11.2228C55.6102 10.843 55.1142 10.5471 54.5463 10.3368C53.9785 10.1264 53.3439 10.0203 52.6426 10.0203C51.9414 10.0203 51.3359 10.1247 50.7561 10.3368C50.1762 10.5471 49.6768 10.8396 49.2561 11.2142C48.8353 11.5888 48.5103 12.0266 48.2828 12.5295C48.0554 13.0323 47.9408 13.5831 47.9408 14.1783C47.9408 14.7735 48.0554 15.3106 48.2828 15.8186C48.5103 16.3283 48.8353 16.7696 49.2561 17.1441C49.6768 17.5187 50.178 17.8112 50.7561 18.0216C51.3359 18.2319 51.9636 18.338 52.6426 18.338V18.3363Z" fill="white"/>
<path id="Vector_3" d="M65.6263 20.3375V10.1607H61.3452V8.05518H72.3122V10.1607H67.9079V20.3375H65.6263Z" fill="white"/>
<path id="Vector_4" d="M75.3823 20.3375V18.2491H78.172V10.1436H75.3823V8.05518H83.2604V10.1436H80.4536V18.2491H83.2604V20.3375H75.3823Z" fill="white"/>
<path id="Vector_5" d="M87.5774 20.3373V8.05493H89.8591V20.3373H87.5774ZM89.2262 17.0909L88.9457 14.8093L96.9469 8.05322H100L89.2262 17.0892V17.0909ZM97.1043 20.3373L92.0159 13.9147L93.4714 12.336L99.9641 20.3373H97.1043Z" fill="white"/>
</g>
<g id="Group_2">
<path id="Vector_6" d="M2.54222 11.4529L0.362829 13.6323C0.162444 13.8327 0.162445 14.1576 0.362829 14.3579L8.3753 22.3704C8.57569 22.5708 8.90058 22.5708 9.10096 22.3704L11.2804 20.191C11.4807 19.9906 11.4807 19.6658 11.2804 19.4654L3.26788 11.4529C3.06749 11.2525 2.74261 11.2525 2.54222 11.4529Z" fill="#06D6A0"/>
<path id="Vector_7" d="M12.2449 14.5824L14.3025 16.64C14.5368 16.8743 14.9165 16.8743 15.1491 16.64L20.5352 11.254L23.0169 8.77217C23.2513 8.53785 23.2513 8.15814 23.0169 7.92553L20.5352 5.44375L15.2689 0.175743C15.0345 -0.0585809 14.6548 -0.0585809 14.4222 0.175743L12.3646 2.23334C12.1303 2.46767 12.1303 2.84738 12.3646 3.07999L17.2085 7.92382C17.4428 8.15814 17.4428 8.53785 17.2085 8.77046L12.2466 13.7323C12.0123 13.9666 12.0123 14.3463 12.2466 14.579L12.2449 14.5824Z" fill="white"/>
<path id="Vector_8" d="M12.1866 26.1858L14.366 28.3652C14.5664 28.5656 14.8913 28.5656 15.0916 28.3652L17.271 26.1858C17.4714 25.9854 17.4714 25.6605 17.271 25.4601L15.0916 23.2808C14.8913 23.0804 14.5664 23.0804 14.366 23.2808L12.1866 25.4601C11.9862 25.6605 11.9862 25.9854 12.1866 26.1858Z" fill="white"/>
<path id="Vector_9" d="M17.9942 20.4905L20.1735 22.6699C20.3739 22.8703 20.6988 22.8703 20.8992 22.6699L23.0786 20.4905C23.279 20.2901 23.279 19.9652 23.0786 19.7648L20.8992 17.5854C20.6988 17.3851 20.3739 17.3851 20.1735 17.5854L17.9942 19.7648C17.7938 19.9652 17.7938 20.2901 17.9942 20.4905Z" fill="white"/>
<path id="Vector_10" d="M5.93587 8.76979L8.11526 10.9492C8.31564 11.1496 8.64053 11.1496 8.84092 10.9492L11.0203 8.76979C11.2207 8.56941 11.2207 8.24452 11.0203 8.04413L8.84092 5.86474C8.64053 5.66435 8.31564 5.66436 8.11526 5.86474L5.93587 8.04413C5.73548 8.24452 5.73548 8.56941 5.93587 8.76979Z" fill="#06D6A0"/>
</g>
</g>
</svg>
