<svg width="100" height="29" viewBox="0 0 100 29" fill="none" xmlns="http://www.w3.org/2000/svg">
<g id="Group 1">
<g id="Group">
<path id="Vector" d="M31.781 20.4739V8.19156H38.0103C38.9818 8.19156 39.7908 8.31129 40.4407 8.55074C41.0907 8.7902 41.5833 9.13912 41.9236 9.59408C42.2623 10.0508 42.4316 10.6066 42.4316 11.2617C42.4316 11.9168 42.2298 12.4966 41.8261 12.9636C41.4225 13.4322 40.8341 13.7657 40.0627 13.9641L40.1328 13.6135C40.6596 13.7315 41.1471 13.9265 41.5987 14.2019C42.0485 14.4772 42.4094 14.8313 42.6779 15.264C42.9464 15.6968 43.0816 16.2184 43.0816 16.8256C43.0816 17.5046 42.9499 18.0776 42.6865 18.5446C42.4231 19.0132 42.0656 19.3861 41.6158 19.6666C41.1659 19.9471 40.6614 20.1523 40.1072 20.2806C39.5513 20.4089 38.9749 20.4739 38.3797 20.4739H31.7827H31.781ZM34.0096 13.1568H38.0975C38.484 13.1568 38.8278 13.0953 39.1323 12.9721C39.4367 12.849 39.6796 12.6762 39.8609 12.4539C40.0422 12.2315 40.1328 11.9749 40.1328 11.6825C40.1328 11.1916 39.9276 10.829 39.5188 10.5947C39.11 10.3603 38.5764 10.244 37.923 10.244H34.0096V13.1568ZM34.0096 18.4214H38.378C38.8569 18.4214 39.2794 18.3598 39.642 18.2367C40.0046 18.1135 40.2851 17.9271 40.4835 17.6757C40.6819 17.4243 40.7811 17.1164 40.7811 16.7538C40.7811 16.357 40.6614 16.0405 40.4219 15.8062C40.1825 15.5719 39.8694 15.4026 39.4829 15.2982C39.0964 15.1922 38.6995 15.1409 38.289 15.1409H34.0079V18.4214H34.0096Z" fill="#073B4C"/>
<path id="Vector_2" d="M52.6426 20.6484C51.625 20.6484 50.6894 20.4876 49.8359 20.166C48.9824 19.8445 48.2367 19.3964 47.5987 18.8234C46.9607 18.2504 46.4698 17.5799 46.1243 16.8137C45.7788 16.0474 45.6061 15.2145 45.6061 14.3131C45.6061 13.4117 45.7788 12.5787 46.1243 11.8125C46.4698 11.0462 46.9607 10.3775 47.5987 9.80277C48.2367 9.22979 48.9824 8.78167 49.8359 8.46011C50.6894 8.13856 51.625 7.97778 52.6426 7.97778C53.6603 7.97778 54.613 8.13514 55.4682 8.45156C56.3217 8.76798 57.064 9.2144 57.6968 9.79422C58.328 10.374 58.8189 11.0462 59.1712 11.8125C59.5218 12.5787 59.698 13.4117 59.698 14.3131C59.698 15.2145 59.5218 16.0474 59.1712 16.8137C58.8206 17.5799 58.3297 18.2521 57.6968 18.8319C57.0657 19.4118 56.3217 19.8582 55.4682 20.1746C54.6147 20.491 53.6723 20.6484 52.6426 20.6484ZM52.6426 18.4727C53.3439 18.4727 53.9785 18.3667 54.5463 18.1563C55.1142 17.9459 55.6102 17.6501 56.0378 17.2703C56.4654 16.8906 56.7955 16.4494 57.0298 15.9465C57.2641 15.4436 57.3804 14.8997 57.3804 14.3148C57.3804 13.7298 57.2641 13.1859 57.0298 12.6831C56.7955 12.1802 56.4654 11.7389 56.0378 11.3592C55.6102 10.9795 55.1142 10.6836 54.5463 10.4732C53.9785 10.2629 53.3439 10.1568 52.6426 10.1568C51.9414 10.1568 51.3359 10.2612 50.7561 10.4732C50.1762 10.6836 49.6768 10.9761 49.2561 11.3507C48.8353 11.7253 48.5103 12.1631 48.2828 12.666C48.0554 13.1688 47.9408 13.7196 47.9408 14.3148C47.9408 14.91 48.0554 15.4471 48.2828 15.9551C48.5103 16.4647 48.8353 16.906 49.2561 17.2806C49.6768 17.6552 50.178 17.9477 50.7561 18.158C51.3359 18.3684 51.9636 18.4745 52.6426 18.4745V18.4727Z" fill="#073B4C"/>
<path id="Vector_3" d="M65.6262 20.4739V10.2971H61.3451V8.19156H72.3121V10.2971H67.9079V20.4739H65.6262Z" fill="#073B4C"/>
<path id="Vector_4" d="M75.3823 20.4739V18.3855H78.172V10.2799H75.3823V8.19156H83.2604V10.2799H80.4536V18.3855H83.2604V20.4739H75.3823Z" fill="#073B4C"/>
<path id="Vector_5" d="M87.5774 20.4739V8.19156H89.8591V20.4739H87.5774ZM89.2262 17.2276L88.9457 14.9459L96.9469 8.18985H100L89.2262 17.2259V17.2276ZM97.1043 20.4739L92.0159 14.0514L93.4714 12.4727L99.9641 20.4739H97.1043Z" fill="#073B4C"/>
</g>
<g id="Group_2">
<path id="Vector_6" d="M2.54222 11.5891L0.362829 13.7685C0.162444 13.9688 0.162445 14.2937 0.362829 14.4941L8.3753 22.5066C8.57569 22.707 8.90058 22.707 9.10096 22.5066L11.2804 20.3272C11.4807 20.1268 11.4807 19.8019 11.2804 19.6015L3.26788 11.5891C3.06749 11.3887 2.74261 11.3887 2.54222 11.5891Z" fill="#06D6A0"/>
<path id="Vector_7" d="M12.2449 14.7184L14.3025 16.776C14.5368 17.0103 14.9165 17.0103 15.1491 16.776L20.5352 11.39L23.0169 8.90822C23.2513 8.6739 23.2513 8.29419 23.0169 8.06158L20.5352 5.5798L15.2689 0.31179C15.0345 0.0774664 14.6548 0.0774664 14.4222 0.31179L12.3646 2.36939C12.1303 2.60372 12.1303 2.98342 12.3646 3.21604L17.2085 8.05987C17.4428 8.29419 17.4428 8.6739 17.2085 8.90651L12.2466 13.8684C12.0123 14.1027 12.0123 14.4824 12.2466 14.715L12.2449 14.7184Z" fill="#073B4C"/>
<path id="Vector_8" d="M12.1867 26.3218L14.3661 28.5012C14.5664 28.7015 14.8913 28.7015 15.0917 28.5012L17.2711 26.3218C17.4715 26.1214 17.4715 25.7965 17.2711 25.5961L15.0917 23.4167C14.8913 23.2163 14.5664 23.2163 14.3661 23.4167L12.1867 25.5961C11.9863 25.7965 11.9863 26.1214 12.1867 26.3218Z" fill="#073B4C"/>
<path id="Vector_9" d="M17.9942 20.6267L20.1735 22.8061C20.3739 23.0065 20.6988 23.0065 20.8992 22.8061L23.0786 20.6267C23.279 20.4263 23.279 20.1015 23.0786 19.9011L20.8992 17.7217C20.6988 17.5213 20.3739 17.5213 20.1735 17.7217L17.9942 19.9011C17.7938 20.1015 17.7938 20.4263 17.9942 20.6267Z" fill="#073B4C"/>
<path id="Vector_10" d="M5.93587 8.90575L8.11526 11.0851C8.31564 11.2855 8.64053 11.2855 8.84092 11.0851L11.0203 8.90575C11.2207 8.70536 11.2207 8.38047 11.0203 8.18009L8.84092 6.0007C8.64053 5.80031 8.31564 5.80031 8.11526 6.0007L5.93587 8.18009C5.73548 8.38047 5.73548 8.70536 5.93587 8.90575Z" fill="#06D6A0"/>
</g>
</g>
</svg>
